<svg width="30" height="39" viewBox="0 0 30 39" fill="none" xmlns="http://www.w3.org/2000/svg">
<path d="M10.5883 0H8.82336V1.77294H10.5883V0Z" fill="white"/>
<path d="M12.3532 0H10.5883V1.77294H12.3532V0Z" fill="white"/>
<path d="M8.82339 1.77293H7.05847V3.54587H8.82339V1.77293Z" fill="white"/>
<path d="M14.1182 1.77293H12.3533V3.54587H14.1182V1.77293Z" fill="white"/>
<path d="M8.82339 3.54588H7.05847V5.31882H8.82339V3.54588Z" fill="white"/>
<path d="M14.1182 3.54588H12.3533V5.31882H14.1182V3.54588Z" fill="white"/>
<path d="M8.82339 5.31766H7.05847V7.0906H8.82339V5.31766Z" fill="white"/>
<path d="M14.1182 5.31766H12.3533V7.0906H14.1182V5.31766Z" fill="white"/>
<path d="M8.82339 7.09059H7.05847V8.86353H8.82339V7.09059Z" fill="white"/>
<path d="M14.1182 7.09059H12.3533V8.86353H14.1182V7.09059Z" fill="white"/>
<path d="M8.82339 8.86353H7.05847V10.6365H8.82339V8.86353Z" fill="white"/>
<path d="M14.1182 8.86353H12.3533V10.6365H14.1182V8.86353Z" fill="white"/>
<path d="M15.8819 8.86353H14.1169V10.6365H15.8819V8.86353Z" fill="white"/>
<path d="M17.6468 8.86353H15.8818V10.6365H17.6468V8.86353Z" fill="white"/>
<path d="M8.82339 10.6365H7.05847V12.4094H8.82339V10.6365Z" fill="white"/>
<path d="M14.1182 10.6365H12.3533V12.4094H14.1182V10.6365Z" fill="white"/>
<path d="M19.4117 10.6365H17.6468V12.4094H19.4117V10.6365Z" fill="white"/>
<path d="M21.1766 10.6365H19.4117V12.4094H21.1766V10.6365Z" fill="white"/>
<path d="M22.9415 10.6365H21.1766V12.4094H22.9415V10.6365Z" fill="white"/>
<path d="M8.82339 12.4094H7.05847V14.1824H8.82339V12.4094Z" fill="white"/>
<path d="M14.1182 12.4094H12.3533V14.1824H14.1182V12.4094Z" fill="white"/>
<path d="M19.4117 12.4094H17.6468V14.1824H19.4117V12.4094Z" fill="white"/>
<path d="M24.7053 12.4094H22.9404V14.1824H24.7053V12.4094Z" fill="white"/>
<path d="M26.4702 12.4094H24.7053V14.1824H26.4702V12.4094Z" fill="white"/>
<path d="M8.82339 14.1812H7.05847V15.9541H8.82339V14.1812Z" fill="white"/>
<path d="M14.1182 14.1812H12.3533V15.9541H14.1182V14.1812Z" fill="white"/>
<path d="M19.4117 14.1812H17.6468V15.9541H19.4117V14.1812Z" fill="white"/>
<path d="M24.7053 14.1812H22.9404V15.9541H24.7053V14.1812Z" fill="white"/>
<path d="M28.2351 14.1812H26.4702V15.9541H28.2351V14.1812Z" fill="white"/>
<path d="M1.76491 15.9541H0V17.727H1.76491V15.9541Z" fill="white"/>
<path d="M3.52981 15.9541H1.76489V17.727H3.52981V15.9541Z" fill="white"/>
<path d="M5.2947 15.9541H3.52979V17.727H5.2947V15.9541Z" fill="white"/>
<path d="M8.82339 15.9541H7.05847V17.727H8.82339V15.9541Z" fill="white"/>
<path d="M14.1182 15.9541H12.3533V17.727H14.1182V15.9541Z" fill="white"/>
<path d="M19.4117 15.9541H17.6468V17.727H19.4117V15.9541Z" fill="white"/>
<path d="M19.4117 17.7271H17.6468V19.5H19.4117V17.7271Z" fill="white"/>
<path d="M24.7053 15.9541H22.9404V17.727H24.7053V15.9541Z" fill="white"/>
<path d="M30 15.9541H28.235V17.727H30V15.9541Z" fill="white"/>
<path d="M1.76491 17.7271H0V19.5H1.76491V17.7271Z" fill="white"/>
<path d="M7.05849 17.7271H5.29358V19.5H7.05849V17.7271Z" fill="white"/>
<path d="M8.82339 17.7271H7.05847V19.5H8.82339V17.7271Z" fill="white"/>
<path d="M24.7053 17.7271H22.9404V19.5H24.7053V17.7271Z" fill="white"/>
<path d="M24.7053 19.5H22.9404V21.2729H24.7053V19.5Z" fill="white"/>
<path d="M30 17.7271H28.235V19.5H30V17.7271Z" fill="white"/>
<path d="M1.76491 19.5H0V21.2729H1.76491V19.5Z" fill="white"/>
<path d="M8.82339 19.5H7.05847V21.2729H8.82339V19.5Z" fill="white"/>
<path d="M30 19.5H28.235V21.2729H30V19.5Z" fill="white"/>
<path d="M3.52981 21.2729H1.76489V23.0459H3.52981V21.2729Z" fill="white"/>
<path d="M30 21.2729H28.235V23.0459H30V21.2729Z" fill="white"/>
<path d="M5.2947 23.0447H3.52979V24.8176H5.2947V23.0447Z" fill="white"/>
<path d="M30 23.0447H28.235V24.8176H30V23.0447Z" fill="white"/>
<path d="M5.2947 24.8176H3.52979V26.5906H5.2947V24.8176Z" fill="white"/>
<path d="M30 24.8176H28.235V26.5906H30V24.8176Z" fill="white"/>
<path d="M7.05849 26.5906H5.29358V28.3635H7.05849V26.5906Z" fill="white"/>
<path d="M30 26.5906H28.235V28.3635H30V26.5906Z" fill="white"/>
<path d="M7.05849 28.3635H5.29358V30.1365H7.05849V28.3635Z" fill="white"/>
<path d="M28.2351 28.3635H26.4702V30.1365H28.2351V28.3635Z" fill="white"/>
<path d="M8.82339 30.1365H7.05847V31.9094H8.82339V30.1365Z" fill="white"/>
<path d="M28.2351 30.1365H26.4702V31.9094H28.2351V30.1365Z" fill="white"/>
<path d="M8.82339 31.9094H7.05847V33.6824H8.82339V31.9094Z" fill="white"/>
<path d="M28.2351 31.9094H26.4702V33.6824H28.2351V31.9094Z" fill="white"/>
<path d="M10.5883 33.6812H8.82336V35.4541H10.5883V33.6812Z" fill="white"/>
<path d="M26.4702 33.6812H24.7053V35.4541H26.4702V33.6812Z" fill="white"/>
<path d="M10.5883 35.4541H8.82336V37.2271H10.5883V35.4541Z" fill="white"/>
<path d="M26.4702 35.4541H24.7053V37.2271H26.4702V35.4541Z" fill="white"/>
<path d="M10.5883 37.2271H8.82336V39H10.5883V37.2271Z" fill="white"/>
<path d="M12.3532 37.2271H10.5883V39H12.3532V37.2271Z" fill="white"/>
<path d="M14.1182 37.2271H12.3533V39H14.1182V37.2271Z" fill="white"/>
<path d="M15.8819 37.2271H14.1169V39H15.8819V37.2271Z" fill="white"/>
<path d="M17.6468 37.2271H15.8818V39H17.6468V37.2271Z" fill="white"/>
<path d="M19.4117 37.2271H17.6468V39H19.4117V37.2271Z" fill="white"/>
<path d="M21.1766 37.2271H19.4117V39H21.1766V37.2271Z" fill="white"/>
<path d="M22.9415 37.2271H21.1766V39H22.9415V37.2271Z" fill="white"/>
<path d="M24.7053 37.2271H22.9404V39H24.7053V37.2271Z" fill="white"/>
<path d="M26.4702 37.2271H24.7053V39H26.4702V37.2271Z" fill="white"/>
</svg>
